<mxfile host="app.diagrams.net" agent="Mozilla/5.0 (Windows NT 10.0; Win64; x64) AppleWebKit/537.36 (KHTML, like Gecko) Chrome/131.0.0.0 Safari/537.36" version="25.0.3">
  <diagram name="Page-1" id="yIoVUU1GpB7VgvMxxICA">
    <mxGraphModel dx="606" dy="1089" grid="1" gridSize="10" guides="1" tooltips="1" connect="1" arrows="1" fold="1" page="1" pageScale="1" pageWidth="850" pageHeight="1100" math="0" shadow="0">
      <root>
        <mxCell id="0" />
        <mxCell id="1" parent="0" />
        <mxCell id="MtWKNI7NRpp35fM_-GFA-4" style="edgeStyle=orthogonalEdgeStyle;rounded=0;orthogonalLoop=1;jettySize=auto;html=1;entryX=0.5;entryY=0;entryDx=0;entryDy=0;" edge="1" parent="1" source="MtWKNI7NRpp35fM_-GFA-1" target="MtWKNI7NRpp35fM_-GFA-2">
          <mxGeometry relative="1" as="geometry">
            <Array as="points">
              <mxPoint x="460" y="490" />
              <mxPoint x="390" y="490" />
            </Array>
          </mxGeometry>
        </mxCell>
        <mxCell id="MtWKNI7NRpp35fM_-GFA-5" style="edgeStyle=orthogonalEdgeStyle;rounded=0;orthogonalLoop=1;jettySize=auto;html=1;entryX=0.5;entryY=0;entryDx=0;entryDy=0;" edge="1" parent="1" source="MtWKNI7NRpp35fM_-GFA-1" target="MtWKNI7NRpp35fM_-GFA-3">
          <mxGeometry relative="1" as="geometry">
            <Array as="points">
              <mxPoint x="460" y="490" />
              <mxPoint x="530" y="490" />
            </Array>
          </mxGeometry>
        </mxCell>
        <mxCell id="MtWKNI7NRpp35fM_-GFA-1" value="Home Page" style="rounded=1;whiteSpace=wrap;html=1;" vertex="1" parent="1">
          <mxGeometry x="400" y="390" width="120" height="60" as="geometry" />
        </mxCell>
        <mxCell id="MtWKNI7NRpp35fM_-GFA-8" value="" style="edgeStyle=orthogonalEdgeStyle;rounded=0;orthogonalLoop=1;jettySize=auto;html=1;" edge="1" parent="1" source="MtWKNI7NRpp35fM_-GFA-2" target="MtWKNI7NRpp35fM_-GFA-7">
          <mxGeometry relative="1" as="geometry" />
        </mxCell>
        <mxCell id="MtWKNI7NRpp35fM_-GFA-2" value="Login/Register" style="rounded=1;whiteSpace=wrap;html=1;" vertex="1" parent="1">
          <mxGeometry x="330" y="610" width="120" height="60" as="geometry" />
        </mxCell>
        <mxCell id="MtWKNI7NRpp35fM_-GFA-6" style="edgeStyle=orthogonalEdgeStyle;rounded=0;orthogonalLoop=1;jettySize=auto;html=1;entryX=0.5;entryY=0;entryDx=0;entryDy=0;" edge="1" parent="1" source="MtWKNI7NRpp35fM_-GFA-3" target="MtWKNI7NRpp35fM_-GFA-2">
          <mxGeometry relative="1" as="geometry">
            <Array as="points">
              <mxPoint x="530" y="580" />
              <mxPoint x="390" y="580" />
            </Array>
          </mxGeometry>
        </mxCell>
        <mxCell id="MtWKNI7NRpp35fM_-GFA-3" value="Register" style="rounded=1;whiteSpace=wrap;html=1;" vertex="1" parent="1">
          <mxGeometry x="470" y="510" width="120" height="60" as="geometry" />
        </mxCell>
        <mxCell id="MtWKNI7NRpp35fM_-GFA-10" value="" style="edgeStyle=orthogonalEdgeStyle;rounded=0;orthogonalLoop=1;jettySize=auto;html=1;entryX=0;entryY=0.5;entryDx=0;entryDy=0;" edge="1" parent="1" source="MtWKNI7NRpp35fM_-GFA-7" target="MtWKNI7NRpp35fM_-GFA-9">
          <mxGeometry relative="1" as="geometry" />
        </mxCell>
        <mxCell id="MtWKNI7NRpp35fM_-GFA-12" style="edgeStyle=orthogonalEdgeStyle;rounded=0;orthogonalLoop=1;jettySize=auto;html=1;entryX=0;entryY=0.5;entryDx=0;entryDy=0;" edge="1" parent="1" source="MtWKNI7NRpp35fM_-GFA-7" target="MtWKNI7NRpp35fM_-GFA-11">
          <mxGeometry relative="1" as="geometry" />
        </mxCell>
        <mxCell id="MtWKNI7NRpp35fM_-GFA-14" style="edgeStyle=orthogonalEdgeStyle;rounded=0;orthogonalLoop=1;jettySize=auto;html=1;entryX=0;entryY=0.5;entryDx=0;entryDy=0;" edge="1" parent="1" source="MtWKNI7NRpp35fM_-GFA-7" target="MtWKNI7NRpp35fM_-GFA-13">
          <mxGeometry relative="1" as="geometry" />
        </mxCell>
        <mxCell id="MtWKNI7NRpp35fM_-GFA-41" style="edgeStyle=orthogonalEdgeStyle;rounded=0;orthogonalLoop=1;jettySize=auto;html=1;entryX=0;entryY=0.5;entryDx=0;entryDy=0;" edge="1" parent="1" source="MtWKNI7NRpp35fM_-GFA-7" target="MtWKNI7NRpp35fM_-GFA-40">
          <mxGeometry relative="1" as="geometry" />
        </mxCell>
        <mxCell id="MtWKNI7NRpp35fM_-GFA-7" value="User Dashboard" style="rounded=1;whiteSpace=wrap;html=1;" vertex="1" parent="1">
          <mxGeometry x="330" y="760" width="120" height="60" as="geometry" />
        </mxCell>
        <mxCell id="MtWKNI7NRpp35fM_-GFA-31" value="" style="edgeStyle=orthogonalEdgeStyle;rounded=0;orthogonalLoop=1;jettySize=auto;html=1;" edge="1" parent="1" source="MtWKNI7NRpp35fM_-GFA-9" target="MtWKNI7NRpp35fM_-GFA-30">
          <mxGeometry relative="1" as="geometry" />
        </mxCell>
        <mxCell id="MtWKNI7NRpp35fM_-GFA-9" value="Schedule" style="whiteSpace=wrap;html=1;rounded=1;" vertex="1" parent="1">
          <mxGeometry x="440" y="850" width="120" height="60" as="geometry" />
        </mxCell>
        <mxCell id="MtWKNI7NRpp35fM_-GFA-29" value="" style="edgeStyle=orthogonalEdgeStyle;rounded=0;orthogonalLoop=1;jettySize=auto;html=1;" edge="1" parent="1" source="MtWKNI7NRpp35fM_-GFA-11" target="MtWKNI7NRpp35fM_-GFA-28">
          <mxGeometry relative="1" as="geometry" />
        </mxCell>
        <mxCell id="MtWKNI7NRpp35fM_-GFA-32" style="edgeStyle=orthogonalEdgeStyle;rounded=0;orthogonalLoop=1;jettySize=auto;html=1;entryX=0.5;entryY=1;entryDx=0;entryDy=0;exitX=1;exitY=0.5;exitDx=0;exitDy=0;" edge="1" parent="1" source="MtWKNI7NRpp35fM_-GFA-11" target="MtWKNI7NRpp35fM_-GFA-30">
          <mxGeometry relative="1" as="geometry">
            <mxPoint x="570" y="920" as="sourcePoint" />
            <Array as="points">
              <mxPoint x="600" y="960" />
              <mxPoint x="600" y="940" />
              <mxPoint x="830" y="940" />
            </Array>
          </mxGeometry>
        </mxCell>
        <mxCell id="MtWKNI7NRpp35fM_-GFA-11" value="My rsrv (optional)" style="whiteSpace=wrap;html=1;rounded=1;" vertex="1" parent="1">
          <mxGeometry x="440" y="930" width="120" height="60" as="geometry" />
        </mxCell>
        <mxCell id="MtWKNI7NRpp35fM_-GFA-50" style="edgeStyle=orthogonalEdgeStyle;rounded=0;orthogonalLoop=1;jettySize=auto;html=1;entryX=0;entryY=0.5;entryDx=0;entryDy=0;" edge="1" parent="1" source="MtWKNI7NRpp35fM_-GFA-13" target="MtWKNI7NRpp35fM_-GFA-49">
          <mxGeometry relative="1" as="geometry" />
        </mxCell>
        <mxCell id="MtWKNI7NRpp35fM_-GFA-13" value="Book" style="whiteSpace=wrap;html=1;rounded=1;" vertex="1" parent="1">
          <mxGeometry x="440" y="1010" width="120" height="60" as="geometry" />
        </mxCell>
        <mxCell id="MtWKNI7NRpp35fM_-GFA-17" style="edgeStyle=orthogonalEdgeStyle;rounded=0;orthogonalLoop=1;jettySize=auto;html=1;entryX=0;entryY=0.5;entryDx=0;entryDy=0;" edge="1" parent="1" source="MtWKNI7NRpp35fM_-GFA-15" target="MtWKNI7NRpp35fM_-GFA-16">
          <mxGeometry relative="1" as="geometry" />
        </mxCell>
        <mxCell id="MtWKNI7NRpp35fM_-GFA-20" style="edgeStyle=orthogonalEdgeStyle;rounded=0;orthogonalLoop=1;jettySize=auto;html=1;entryX=0;entryY=0.5;entryDx=0;entryDy=0;" edge="1" parent="1" source="MtWKNI7NRpp35fM_-GFA-15" target="MtWKNI7NRpp35fM_-GFA-18">
          <mxGeometry relative="1" as="geometry" />
        </mxCell>
        <mxCell id="MtWKNI7NRpp35fM_-GFA-21" style="edgeStyle=orthogonalEdgeStyle;rounded=0;orthogonalLoop=1;jettySize=auto;html=1;entryX=0;entryY=0.5;entryDx=0;entryDy=0;" edge="1" parent="1" source="MtWKNI7NRpp35fM_-GFA-15" target="MtWKNI7NRpp35fM_-GFA-19">
          <mxGeometry relative="1" as="geometry" />
        </mxCell>
        <mxCell id="MtWKNI7NRpp35fM_-GFA-23" style="edgeStyle=orthogonalEdgeStyle;rounded=0;orthogonalLoop=1;jettySize=auto;html=1;entryX=0;entryY=0.5;entryDx=0;entryDy=0;" edge="1" parent="1" source="MtWKNI7NRpp35fM_-GFA-15" target="MtWKNI7NRpp35fM_-GFA-22">
          <mxGeometry relative="1" as="geometry" />
        </mxCell>
        <mxCell id="MtWKNI7NRpp35fM_-GFA-15" value="User Dashboard" style="rounded=1;whiteSpace=wrap;html=1;" vertex="1" parent="1">
          <mxGeometry x="710" y="390" width="120" height="60" as="geometry" />
        </mxCell>
        <mxCell id="MtWKNI7NRpp35fM_-GFA-16" value="All Reserve" style="whiteSpace=wrap;html=1;rounded=1;" vertex="1" parent="1">
          <mxGeometry x="810" y="480" width="120" height="60" as="geometry" />
        </mxCell>
        <mxCell id="MtWKNI7NRpp35fM_-GFA-18" value="All Group" style="whiteSpace=wrap;html=1;rounded=1;" vertex="1" parent="1">
          <mxGeometry x="810" y="560" width="120" height="60" as="geometry" />
        </mxCell>
        <mxCell id="MtWKNI7NRpp35fM_-GFA-19" value="All Users" style="whiteSpace=wrap;html=1;rounded=1;" vertex="1" parent="1">
          <mxGeometry x="810" y="640" width="120" height="60" as="geometry" />
        </mxCell>
        <mxCell id="MtWKNI7NRpp35fM_-GFA-22" value="Branding" style="whiteSpace=wrap;html=1;rounded=1;" vertex="1" parent="1">
          <mxGeometry x="810" y="720" width="120" height="60" as="geometry" />
        </mxCell>
        <mxCell id="MtWKNI7NRpp35fM_-GFA-38" value="" style="edgeStyle=orthogonalEdgeStyle;rounded=0;orthogonalLoop=1;jettySize=auto;html=1;" edge="1" parent="1" source="MtWKNI7NRpp35fM_-GFA-28" target="MtWKNI7NRpp35fM_-GFA-36">
          <mxGeometry relative="1" as="geometry" />
        </mxCell>
        <mxCell id="MtWKNI7NRpp35fM_-GFA-28" value="Create rsrv" style="whiteSpace=wrap;html=1;rounded=1;" vertex="1" parent="1">
          <mxGeometry x="640" y="960" width="120" height="60" as="geometry" />
        </mxCell>
        <mxCell id="MtWKNI7NRpp35fM_-GFA-30" value="rsrv detail" style="whiteSpace=wrap;html=1;rounded=1;" vertex="1" parent="1">
          <mxGeometry x="770" y="850" width="120" height="60" as="geometry" />
        </mxCell>
        <mxCell id="MtWKNI7NRpp35fM_-GFA-34" value="add group/user/invitation" style="whiteSpace=wrap;html=1;rounded=1;" vertex="1" parent="1">
          <mxGeometry x="980" y="960" width="120" height="60" as="geometry" />
        </mxCell>
        <mxCell id="MtWKNI7NRpp35fM_-GFA-39" value="" style="edgeStyle=orthogonalEdgeStyle;rounded=0;orthogonalLoop=1;jettySize=auto;html=1;" edge="1" parent="1" source="MtWKNI7NRpp35fM_-GFA-36" target="MtWKNI7NRpp35fM_-GFA-34">
          <mxGeometry relative="1" as="geometry" />
        </mxCell>
        <mxCell id="MtWKNI7NRpp35fM_-GFA-36" value="fill rsrv details" style="whiteSpace=wrap;html=1;rounded=1;" vertex="1" parent="1">
          <mxGeometry x="810" y="960" width="120" height="60" as="geometry" />
        </mxCell>
        <mxCell id="MtWKNI7NRpp35fM_-GFA-43" value="" style="edgeStyle=orthogonalEdgeStyle;rounded=0;orthogonalLoop=1;jettySize=auto;html=1;" edge="1" parent="1" source="MtWKNI7NRpp35fM_-GFA-40" target="MtWKNI7NRpp35fM_-GFA-42">
          <mxGeometry relative="1" as="geometry" />
        </mxCell>
        <mxCell id="MtWKNI7NRpp35fM_-GFA-45" style="edgeStyle=orthogonalEdgeStyle;rounded=0;orthogonalLoop=1;jettySize=auto;html=1;entryX=0;entryY=0.5;entryDx=0;entryDy=0;" edge="1" parent="1" source="MtWKNI7NRpp35fM_-GFA-40" target="MtWKNI7NRpp35fM_-GFA-44">
          <mxGeometry relative="1" as="geometry" />
        </mxCell>
        <mxCell id="MtWKNI7NRpp35fM_-GFA-40" value="My Groups" style="whiteSpace=wrap;html=1;rounded=1;" vertex="1" parent="1">
          <mxGeometry x="440" y="1090" width="120" height="60" as="geometry" />
        </mxCell>
        <mxCell id="MtWKNI7NRpp35fM_-GFA-42" value="Group Details" style="whiteSpace=wrap;html=1;rounded=1;" vertex="1" parent="1">
          <mxGeometry x="610" y="1170" width="120" height="60" as="geometry" />
        </mxCell>
        <mxCell id="MtWKNI7NRpp35fM_-GFA-44" value="New Group" style="whiteSpace=wrap;html=1;rounded=1;" vertex="1" parent="1">
          <mxGeometry x="610" y="1260" width="120" height="60" as="geometry" />
        </mxCell>
        <mxCell id="MtWKNI7NRpp35fM_-GFA-52" value="" style="edgeStyle=orthogonalEdgeStyle;rounded=0;orthogonalLoop=1;jettySize=auto;html=1;" edge="1" parent="1" source="MtWKNI7NRpp35fM_-GFA-49" target="MtWKNI7NRpp35fM_-GFA-51">
          <mxGeometry relative="1" as="geometry" />
        </mxCell>
        <mxCell id="MtWKNI7NRpp35fM_-GFA-49" value="rsrv booking" style="whiteSpace=wrap;html=1;rounded=1;" vertex="1" parent="1">
          <mxGeometry x="710" y="1060" width="120" height="60" as="geometry" />
        </mxCell>
        <mxCell id="MtWKNI7NRpp35fM_-GFA-51" value="booking process" style="whiteSpace=wrap;html=1;rounded=1;" vertex="1" parent="1">
          <mxGeometry x="880" y="1060" width="120" height="60" as="geometry" />
        </mxCell>
      </root>
    </mxGraphModel>
  </diagram>
</mxfile>
